<svg width="1200" height="800" viewBox="0 0 1200 800" fill="none" xmlns="http://www.w3.org/2000/svg">
  <defs>
    <linearGradient id="bg" x1="0" y1="0" x2="1200" y2="800" gradientUnits="userSpaceOnUse">
      <stop stop-color="#2563EB" />
      <stop offset="1" stop-color="#7C3AED" />
    </linearGradient>
    <linearGradient id="card" x1="100" y1="120" x2="1100" y2="680" gradientUnits="userSpaceOnUse">
      <stop stop-color="#FFFFFF" stop-opacity="0.25"/>
      <stop offset="1" stop-color="#FFFFFF" stop-opacity="0.08"/>
    </linearGradient>
  </defs>

  <rect width="1200" height="800" rx="48" fill="url(#bg)"/>
  <circle cx="1030" cy="120" r="140" fill="#FFFFFF" fill-opacity="0.12"/>
  <circle cx="180" cy="690" r="180" fill="#FFFFFF" fill-opacity="0.10"/>

  <rect x="90" y="100" width="1020" height="600" rx="28" fill="url(#card)" stroke="#FFFFFF" stroke-opacity="0.32"/>

  <rect x="160" y="170" width="350" height="180" rx="20" fill="#FFFFFF" fill-opacity="0.92"/>
  <rect x="195" y="215" width="215" height="18" rx="9" fill="#1E3A8A"/>
  <rect x="195" y="252" width="280" height="12" rx="6" fill="#64748B"/>
  <rect x="195" y="275" width="245" height="12" rx="6" fill="#64748B"/>
  <rect x="195" y="306" width="140" height="28" rx="14" fill="#2563EB"/>

  <rect x="560" y="170" width="470" height="120" rx="20" fill="#FFFFFF" fill-opacity="0.92"/>
  <rect x="595" y="205" width="160" height="16" rx="8" fill="#0F172A"/>
  <rect x="595" y="232" width="300" height="10" rx="5" fill="#64748B"/>
  <rect x="915" y="202" width="80" height="36" rx="18" fill="#16A34A"/>

  <rect x="560" y="320" width="220" height="250" rx="20" fill="#FFFFFF" fill-opacity="0.92"/>
  <rect x="595" y="360" width="120" height="14" rx="7" fill="#0F172A"/>
  <rect x="595" y="388" width="150" height="10" rx="5" fill="#64748B"/>
  <rect x="595" y="418" width="130" height="10" rx="5" fill="#64748B"/>
  <rect x="595" y="455" width="90" height="30" rx="15" fill="#EAB308"/>

  <rect x="810" y="320" width="220" height="250" rx="20" fill="#FFFFFF" fill-opacity="0.92"/>
  <rect x="845" y="360" width="132" height="14" rx="7" fill="#0F172A"/>
  <rect x="845" y="388" width="150" height="10" rx="5" fill="#64748B"/>
  <rect x="845" y="418" width="110" height="10" rx="5" fill="#64748B"/>
  <rect x="845" y="455" width="96" height="30" rx="15" fill="#DC2626"/>

  <text x="160" y="645" fill="#FFFFFF" fill-opacity="0.95" font-family="Segoe UI, Arial, sans-serif" font-size="34" font-weight="700">Smart Campus Operations Overview</text>
</svg>
