<svg width="96" height="96" viewBox="0 0 96 96" fill="none" xmlns="http://www.w3.org/2000/svg">
  <defs>
    <linearGradient id="wuBg" x1="12" y1="10" x2="84" y2="86" gradientUnits="userSpaceOnUse">
      <stop stop-color="#1D4ED8"/>
      <stop offset="1" stop-color="#0EA5E9"/>
    </linearGradient>
    <linearGradient id="wuAccent" x1="26" y1="26" x2="70" y2="70" gradientUnits="userSpaceOnUse">
      <stop stop-color="#FFFFFF" stop-opacity="0.92"/>
      <stop offset="1" stop-color="#DBEAFE" stop-opacity="0.98"/>
    </linearGradient>
  </defs>

  <rect x="8" y="8" width="80" height="80" rx="22" fill="url(#wuBg)"/>
  <path d="M48 20L68 28V45C68 58.5 58.5 69.7 48 74C37.5 69.7 28 58.5 28 45V28L48 20Z" fill="#0F172A" fill-opacity="0.2"/>
  <path d="M48 24L64 30.5V44.2C64 55.4 56.3 64.8 48 68.4C39.7 64.8 32 55.4 32 44.2V30.5L48 24Z" fill="url(#wuAccent)"/>

  <path d="M38 36L43.6 56L48 44.6L52.4 56L58 36" stroke="#1E40AF" stroke-width="4.5" stroke-linecap="round" stroke-linejoin="round"/>
  <circle cx="48" cy="30.8" r="2.8" fill="#1E40AF"/>
</svg>
